<?xml version="1.0" encoding="UTF-8" standalone="no"?>
<!DOCTYPE svg PUBLIC "-//W3C//DTD SVG 1.1//EN"
 "http://www.w3.org/Graphics/SVG/1.1/DTD/svg11.dtd">
<!-- Generated by graphviz version 2.26.3 (20100126.1600)
 -->
<!-- Title: C Pages: 1 -->
<svg width="1728pt" height="493pt"
 viewBox="0.00 0.00 1728.00 493.34" xmlns="http://www.w3.org/2000/svg" xmlns:xlink="http://www.w3.org/1999/xlink">
<g id="graph1" class="graph" transform="scale(1 1) rotate(0) translate(4 489.345)">
<title>C</title>
<polygon fill="white" stroke="white" points="-4,5 -4,-489.345 1725,-489.345 1725,5 -4,5"/>
<!-- Contest -->
<g id="node1" class="node"><title>Contest</title>
<ellipse fill="green" stroke="green" cx="454" cy="-315" rx="48.8383" ry="18"/>
<text text-anchor="middle" x="454" y="-310.9" font-family="Times Roman,serif" font-size="14.00">Contest</text>
</g>
<!-- Special Fields -->
<g id="node3" class="node"><title>Special Fields</title>
<polygon fill="lightgrey" stroke="black" points="673,-420 567,-420 567,-384 673,-384 673,-420"/>
<text text-anchor="middle" x="620" y="-397.9" font-family="Times Roman,serif" font-size="14.00">Special Fields</text>
</g>
<!-- Contest&#45;&gt;Special Fields -->
<g id="edge2" class="edge"><title>Contest&#45;&gt;Special Fields</title>
<path fill="none" stroke="black" d="M480.811,-330.158C502.122,-342.087 532.77,-358.981 560,-373 564.044,-375.082 568.261,-377.208 572.502,-379.316"/>
<polygon fill="black" stroke="black" points="571.25,-382.601 581.768,-383.878 574.342,-376.321 571.25,-382.601"/>
</g>
<!-- Export Format -->
<g id="node6" class="node"><title>Export Format</title>
<polygon fill="lightgrey" stroke="black" points="1480,-464 1364,-464 1364,-428 1480,-428 1480,-464"/>
<text text-anchor="middle" x="1422" y="-441.9" font-family="Times Roman,serif" font-size="14.00">Export Format</text>
</g>
<!-- Contest&#45;&gt;Export Format -->
<g id="edge5" class="edge"><title>Contest&#45;&gt;Export Format</title>
<path fill="none" stroke="black" d="M464.7,-332.982C481.382,-359.181 516.259,-407.102 560,-429 645.933,-472.021 678.899,-452 775,-452 775,-452 775,-452 1095,-452 1184.33,-452 1287.37,-449.734 1353.53,-447.987"/>
<polygon fill="black" stroke="black" points="1353.92,-451.478 1363.82,-447.711 1353.73,-444.48 1353.92,-451.478"/>
</g>
<!-- Required Fields -->
<g id="node9" class="node"><title>Required Fields</title>
<polygon fill="lightgrey" stroke="black" points="680,-364 560,-364 560,-328 680,-328 680,-364"/>
<text text-anchor="middle" x="620" y="-341.9" font-family="Times Roman,serif" font-size="14.00">Required Fields</text>
</g>
<!-- Contest&#45;&gt;Required Fields -->
<g id="edge8" class="edge"><title>Contest&#45;&gt;Required Fields</title>
<path fill="none" stroke="black" d="M498.049,-323.226C513.867,-326.18 532.125,-329.59 549.618,-332.856"/>
<polygon fill="black" stroke="black" points="549.333,-336.364 559.805,-334.759 550.618,-329.482 549.333,-336.364"/>
</g>
<!-- Plug&#45;In -->
<g id="node12" class="node"><title>Plug&#45;In</title>
<polygon fill="lightgrey" stroke="black" points="1127,-202 1063,-202 1063,-166 1127,-166 1127,-202"/>
<text text-anchor="middle" x="1095" y="-179.9" font-family="Times Roman,serif" font-size="14.00">Plug&#45;In</text>
</g>
<!-- Contest&#45;&gt;Plug&#45;In -->
<g id="edge11" class="edge"><title>Contest&#45;&gt;Plug&#45;In</title>
<path fill="none" stroke="black" d="M478.31,-299.257C499.199,-286.395 530.525,-268.657 560,-258 734.697,-194.836 959.414,-185.117 1052.11,-183.951"/>
<polygon fill="black" stroke="black" points="1052.26,-187.45 1062.22,-183.852 1052.19,-180.45 1052.26,-187.45"/>
</g>
<!-- Rule Check -->
<g id="node15" class="node"><title>Rule Check</title>
<polygon fill="lightgrey" stroke="black" points="666,-303 574,-303 574,-267 666,-267 666,-303"/>
<text text-anchor="middle" x="620" y="-280.9" font-family="Times Roman,serif" font-size="14.00">Rule Check</text>
</g>
<!-- Contest&#45;&gt;Rule Check -->
<g id="edge14" class="edge"><title>Contest&#45;&gt;Rule Check</title>
<path fill="none" stroke="black" d="M498.485,-306.961C518.466,-303.35 542.273,-299.047 563.497,-295.211"/>
<polygon fill="black" stroke="black" points="564.143,-298.651 573.361,-293.429 562.898,-291.763 564.143,-298.651"/>
</g>
<!-- Defaults -->
<g id="node4" class="node"><title>Defaults</title>
<ellipse fill="green" stroke="green" cx="775" cy="-406" rx="50.9221" ry="18"/>
<text text-anchor="middle" x="775" y="-401.9" font-family="Times Roman,serif" font-size="14.00">Defaults</text>
</g>
<!-- Special Fields&#45;&gt;Defaults -->
<g id="edge3" class="edge"><title>Special Fields&#45;&gt;Defaults</title>
<path fill="none" stroke="black" d="M673.776,-403.388C686.471,-403.715 700.106,-404.067 713.126,-404.403"/>
<polygon fill="black" stroke="black" points="713.32,-407.909 723.407,-404.669 713.501,-400.912 713.32,-407.909"/>
</g>
<!-- Field Behaviour -->
<g id="node18" class="node"><title>Field Behaviour</title>
<polygon fill="lightgrey" stroke="black" points="1002,-424 880,-424 880,-388 1002,-388 1002,-424"/>
<text text-anchor="middle" x="941" y="-401.9" font-family="Times Roman,serif" font-size="14.00">Field Behaviour</text>
</g>
<!-- Defaults&#45;&gt;Field Behaviour -->
<g id="edge17" class="edge"><title>Defaults&#45;&gt;Field Behaviour</title>
<path fill="none" stroke="black" d="M826.613,-406C840.016,-406 854.699,-406 868.944,-406"/>
<polygon fill="black" stroke="black" points="869.215,-409.5 879.215,-406 869.215,-402.5 869.215,-409.5"/>
</g>
<!-- Export -->
<g id="node7" class="node"><title>Export</title>
<ellipse fill="green" stroke="green" cx="1670" cy="-379" rx="43.0827" ry="18"/>
<text text-anchor="middle" x="1670" y="-374.9" font-family="Times Roman,serif" font-size="14.00">Export</text>
</g>
<!-- Export Format&#45;&gt;Export -->
<g id="edge6" class="edge"><title>Export Format&#45;&gt;Export</title>
<path fill="none" stroke="black" d="M1480.24,-435.519C1511.31,-429.401 1550.03,-420.934 1584,-411 1599.16,-406.568 1615.47,-400.77 1629.77,-395.329"/>
<polygon fill="black" stroke="black" points="1631.25,-398.511 1639.31,-391.64 1628.72,-391.982 1631.25,-398.511"/>
</g>
<!-- Form -->
<g id="node10" class="node"><title>Form</title>
<ellipse fill="green" stroke="green" cx="1095" cy="-368" rx="34.9399" ry="18"/>
<text text-anchor="middle" x="1095" y="-363.9" font-family="Times Roman,serif" font-size="14.00">Form</text>
</g>
<!-- Required Fields&#45;&gt;Form -->
<g id="edge9" class="edge"><title>Required Fields&#45;&gt;Form</title>
<path fill="none" stroke="black" d="M680.159,-348.786C776.474,-353.247 963.194,-361.895 1049.38,-365.887"/>
<polygon fill="black" stroke="black" points="1049.23,-369.384 1059.38,-366.35 1049.55,-362.391 1049.23,-369.384"/>
</g>
<!-- Insert Row -->
<g id="node20" class="node"><title>Insert Row</title>
<polygon fill="lightgrey" stroke="black" points="1299,-367 1207,-367 1207,-331 1299,-331 1299,-367"/>
<text text-anchor="middle" x="1253" y="-344.9" font-family="Times Roman,serif" font-size="14.00">Insert Row</text>
</g>
<!-- Form&#45;&gt;Insert Row -->
<g id="edge20" class="edge"><title>Form&#45;&gt;Insert Row</title>
<path fill="none" stroke="black" d="M1129.67,-363.83C1149.29,-361.472 1174.29,-358.465 1196.65,-355.776"/>
<polygon fill="black" stroke="black" points="1197.2,-359.235 1206.71,-354.566 1196.37,-352.285 1197.2,-359.235"/>
</g>
<!-- Storage -->
<g id="node13" class="node"><title>Storage</title>
<ellipse fill="green" stroke="green" cx="1670" cy="-152" rx="48.8383" ry="18"/>
<text text-anchor="middle" x="1670" y="-147.9" font-family="Times Roman,serif" font-size="14.00">Storage</text>
</g>
<!-- Plug&#45;In&#45;&gt;Storage -->
<g id="edge12" class="edge"><title>Plug&#45;In&#45;&gt;Storage</title>
<path fill="none" stroke="black" d="M1127.56,-182.188C1220.94,-176.991 1490.62,-161.983 1610.89,-155.29"/>
<polygon fill="black" stroke="black" points="1611.22,-158.777 1621.01,-154.726 1610.83,-151.787 1611.22,-158.777"/>
</g>
<!-- Validation -->
<g id="node16" class="node"><title>Validation</title>
<ellipse fill="green" stroke="green" cx="775" cy="-270" rx="59.065" ry="18"/>
<text text-anchor="middle" x="775" y="-265.9" font-family="Times Roman,serif" font-size="14.00">Validation</text>
</g>
<!-- Rule Check&#45;&gt;Validation -->
<g id="edge15" class="edge"><title>Rule Check&#45;&gt;Validation</title>
<path fill="none" stroke="black" d="M666.505,-280.5C679.708,-279.222 694.348,-277.805 708.49,-276.436"/>
<polygon fill="black" stroke="black" points="709.055,-279.898 718.672,-275.451 708.381,-272.931 709.055,-279.898"/>
</g>
<!-- Show Invalid Field -->
<g id="node52" class="node"><title>Show Invalid Field</title>
<polygon fill="lightgrey" stroke="black" points="1012,-332 870,-332 870,-296 1012,-296 1012,-332"/>
<text text-anchor="middle" x="941" y="-309.9" font-family="Times Roman,serif" font-size="14.00">Show Invalid Field</text>
</g>
<!-- Validation&#45;&gt;Show Invalid Field -->
<g id="edge62" class="edge"><title>Validation&#45;&gt;Show Invalid Field</title>
<path fill="none" stroke="black" d="M819.922,-281.907C833.312,-285.456 848.39,-289.453 863.244,-293.39"/>
<polygon fill="black" stroke="black" points="862.389,-296.784 872.952,-295.963 864.183,-290.018 862.389,-296.784"/>
</g>
<!-- Show Invalid Entry -->
<g id="node54" class="node"><title>Show Invalid Entry</title>
<polygon fill="lightgrey" stroke="black" points="1327,-259 1179,-259 1179,-223 1327,-223 1327,-259"/>
<text text-anchor="middle" x="1253" y="-236.9" font-family="Times Roman,serif" font-size="14.00">Show Invalid Entry</text>
</g>
<!-- Validation&#45;&gt;Show Invalid Entry -->
<g id="edge65" class="edge"><title>Validation&#45;&gt;Show Invalid Entry</title>
<path fill="none" stroke="black" d="M833.134,-266.473C916.879,-261.392 1071.97,-251.983 1168.41,-246.132"/>
<polygon fill="black" stroke="black" points="1168.65,-249.624 1178.42,-245.525 1168.23,-242.637 1168.65,-249.624"/>
</g>
<!-- Field Behaviour&#45;&gt;Form -->
<g id="edge18" class="edge"><title>Field Behaviour&#45;&gt;Form</title>
<path fill="none" stroke="black" d="M1002.75,-390.763C1019.64,-386.596 1037.54,-382.178 1053.04,-378.354"/>
<polygon fill="black" stroke="black" points="1053.97,-381.729 1062.84,-375.935 1052.3,-374.933 1053.97,-381.729"/>
</g>
<!-- Log -->
<g id="node21" class="node"><title>Log</title>
<ellipse fill="green" stroke="green" cx="1422" cy="-262" rx="27.9903" ry="18"/>
<text text-anchor="middle" x="1422" y="-257.9" font-family="Times Roman,serif" font-size="14.00">Log</text>
</g>
<!-- Insert Row&#45;&gt;Log -->
<g id="edge21" class="edge"><title>Insert Row&#45;&gt;Log</title>
<path fill="none" stroke="black" d="M1299.28,-334.166C1308.94,-330.566 1318.93,-326.456 1328,-322 1351.59,-310.404 1376.6,-294.23 1394.89,-281.596"/>
<polygon fill="black" stroke="black" points="1397.11,-284.317 1403.29,-275.714 1393.09,-278.582 1397.11,-284.317"/>
</g>
<!-- Extract -->
<g id="node26" class="node"><title>Extract</title>
<polygon fill="lightgrey" stroke="black" points="1583,-338 1517,-338 1517,-302 1583,-302 1583,-338"/>
<text text-anchor="middle" x="1550" y="-315.9" font-family="Times Roman,serif" font-size="14.00">Extract</text>
</g>
<!-- Log&#45;&gt;Extract -->
<g id="edge26" class="edge"><title>Log&#45;&gt;Extract</title>
<path fill="none" stroke="black" d="M1445.18,-272.503C1462.42,-280.317 1486.45,-291.204 1507.15,-300.585"/>
<polygon fill="black" stroke="black" points="1505.84,-303.832 1516.39,-304.772 1508.73,-297.456 1505.84,-303.832"/>
</g>
<!-- Insert -->
<g id="node28" class="node"><title>Insert</title>
<polygon fill="lightgrey" stroke="black" points="1578,-264 1522,-264 1522,-228 1578,-228 1578,-264"/>
<text text-anchor="middle" x="1550" y="-241.9" font-family="Times Roman,serif" font-size="14.00">Insert</text>
</g>
<!-- Log&#45;&gt;Insert -->
<g id="edge29" class="edge"><title>Log&#45;&gt;Insert</title>
<path fill="none" stroke="black" d="M1450.09,-258.489C1467.93,-256.259 1491.28,-253.34 1510.91,-250.886"/>
<polygon fill="black" stroke="black" points="1511.6,-254.327 1521.09,-249.614 1510.73,-247.381 1511.6,-254.327"/>
</g>
<!-- Edit -->
<g id="node30" class="node"><title>Edit</title>
<polygon fill="lightgrey" stroke="black" points="1577,-402 1523,-402 1523,-366 1577,-366 1577,-402"/>
<text text-anchor="middle" x="1550" y="-379.9" font-family="Times Roman,serif" font-size="14.00">Edit</text>
</g>
<!-- Log&#45;&gt;Edit -->
<g id="edge32" class="edge"><title>Log&#45;&gt;Edit</title>
<path fill="none" stroke="black" d="M1437.95,-277.205C1459.33,-297.581 1497.57,-334.023 1523.35,-358.602"/>
<polygon fill="black" stroke="black" points="1521.27,-361.452 1530.92,-365.818 1526.1,-356.385 1521.27,-361.452"/>
</g>
<!-- Import -->
<g id="node22" class="node"><title>Import</title>
<ellipse fill="green" stroke="green" cx="1095" cy="-314" rx="43.0827" ry="18"/>
<text text-anchor="middle" x="1095" y="-309.9" font-family="Times Roman,serif" font-size="14.00">Import</text>
</g>
<!-- Add records to -->
<g id="node24" class="node"><title>Add records to</title>
<polygon fill="lightgrey" stroke="black" points="1311,-313 1195,-313 1195,-277 1311,-277 1311,-313"/>
<text text-anchor="middle" x="1253" y="-290.9" font-family="Times Roman,serif" font-size="14.00">Add records to</text>
</g>
<!-- Import&#45;&gt;Add records to -->
<g id="edge23" class="edge"><title>Import&#45;&gt;Add records to</title>
<path fill="none" stroke="black" d="M1136.51,-309.008C1151.28,-307.232 1168.32,-305.183 1184.73,-303.21"/>
<polygon fill="black" stroke="black" points="1185.33,-306.663 1194.84,-301.994 1184.49,-299.713 1185.33,-306.663"/>
</g>
<!-- Add records to&#45;&gt;Log -->
<g id="edge24" class="edge"><title>Add records to&#45;&gt;Log</title>
<path fill="none" stroke="black" d="M1311.16,-283.643C1335.45,-278.901 1362.96,-273.528 1384.5,-269.322"/>
<polygon fill="black" stroke="black" points="1385.41,-272.711 1394.55,-267.359 1384.07,-265.841 1385.41,-272.711"/>
</g>
<!-- Extract&#45;&gt;Export -->
<g id="edge27" class="edge"><title>Extract&#45;&gt;Export</title>
<path fill="none" stroke="black" d="M1583.75,-336.592C1598.9,-344.043 1616.84,-352.864 1632.42,-360.525"/>
<polygon fill="black" stroke="black" points="1631.26,-363.851 1641.78,-365.123 1634.35,-357.57 1631.26,-363.851"/>
</g>
<!-- Insert&#45;&gt;Storage -->
<g id="edge30" class="edge"><title>Insert&#45;&gt;Storage</title>
<path fill="none" stroke="black" d="M1573.14,-227.876C1592.5,-212.71 1620.22,-190.996 1641.05,-174.679"/>
<polygon fill="black" stroke="black" points="1643.23,-177.417 1648.94,-168.495 1638.91,-171.906 1643.23,-177.417"/>
</g>
<!-- Edit&#45;&gt;Form -->
<g id="edge33" class="edge"><title>Edit&#45;&gt;Form</title>
<path fill="none" stroke="black" d="M1522.9,-384.109C1461.48,-384.204 1306.97,-383.592 1178,-376 1165.58,-375.269 1152.15,-374.127 1139.78,-372.933"/>
<polygon fill="black" stroke="black" points="1139.98,-369.436 1129.68,-371.925 1139.29,-376.401 1139.98,-369.436"/>
</g>
<!-- Preferences -->
<g id="node31" class="node"><title>Preferences</title>
<ellipse fill="green" stroke="green" cx="68" cy="-161" rx="68.0985" ry="18"/>
<text text-anchor="middle" x="68" y="-156.9" font-family="Times Roman,serif" font-size="14.00">Preferences</text>
</g>
<!-- Current Contest -->
<g id="node33" class="node"><title>Current Contest</title>
<polygon fill="lightgrey" stroke="black" points="324,-293 196,-293 196,-257 324,-257 324,-293"/>
<text text-anchor="middle" x="260" y="-270.9" font-family="Times Roman,serif" font-size="14.00">Current Contest</text>
</g>
<!-- Preferences&#45;&gt;Current Contest -->
<g id="edge35" class="edge"><title>Preferences&#45;&gt;Current Contest</title>
<path fill="none" stroke="black" d="M95.9184,-177.577C128.709,-197.046 183.334,-229.48 220.469,-251.528"/>
<polygon fill="black" stroke="black" points="219.124,-254.8 229.509,-256.896 222.697,-248.781 219.124,-254.8"/>
</g>
<!-- Visible Fields -->
<g id="node35" class="node"><title>Visible Fields</title>
<polygon fill="lightgrey" stroke="black" points="506,-463 402,-463 402,-427 506,-427 506,-463"/>
<text text-anchor="middle" x="454" y="-440.9" font-family="Times Roman,serif" font-size="14.00">Visible Fields</text>
</g>
<!-- Preferences&#45;&gt;Visible Fields -->
<g id="edge38" class="edge"><title>Preferences&#45;&gt;Visible Fields</title>
<path fill="none" stroke="black" d="M77.6491,-179.133C93.8605,-208.202 129.044,-265.649 172,-302 238.823,-358.547 331.82,-400.134 392.453,-423.457"/>
<polygon fill="black" stroke="black" points="391.306,-426.765 401.898,-427.042 393.791,-420.221 391.306,-426.765"/>
</g>
<!-- Visible Columns -->
<g id="node37" class="node"><title>Visible Columns</title>
<polygon fill="lightgrey" stroke="black" points="1315,-156 1191,-156 1191,-120 1315,-120 1315,-156"/>
<text text-anchor="middle" x="1253" y="-133.9" font-family="Times Roman,serif" font-size="14.00">Visible Columns</text>
</g>
<!-- Preferences&#45;&gt;Visible Columns -->
<g id="edge41" class="edge"><title>Preferences&#45;&gt;Visible Columns</title>
<path fill="none" stroke="black" d="M132.131,-154.836C208.665,-148.024 340.546,-138 454,-138 454,-138 454,-138 941,-138 1022.84,-138 1116.75,-138 1179.98,-138"/>
<polygon fill="black" stroke="black" points="1180.25,-141.5 1190.25,-138 1180.25,-134.5 1180.25,-141.5"/>
</g>
<!-- Store Preferences -->
<g id="node39" class="node"><title>Store Preferences</title>
<polygon fill="lightgrey" stroke="black" points="524,-36 384,-36 384,-1.77636e-14 524,-3.55271e-15 524,-36"/>
<text text-anchor="middle" x="454" y="-13.9" font-family="Times Roman,serif" font-size="14.00">Store Preferences</text>
</g>
<!-- Preferences&#45;&gt;Store Preferences -->
<g id="edge44" class="edge"><title>Preferences&#45;&gt;Store Preferences</title>
<path fill="none" stroke="black" d="M81.6679,-143.164C99.7484,-120.962 133.821,-83.6922 172,-65 235.29,-34.0141 315.115,-22.9414 373.668,-19.2249"/>
<polygon fill="black" stroke="black" points="374.194,-22.7005 383.977,-18.6323 373.793,-15.712 374.194,-22.7005"/>
</g>
<!-- Current Theme -->
<g id="node41" class="node"><title>Current Theme</title>
<polygon fill="lightgrey" stroke="black" points="321,-110 199,-110 199,-74 321,-74 321,-110"/>
<text text-anchor="middle" x="260" y="-87.9" font-family="Times Roman,serif" font-size="14.00">Current Theme</text>
</g>
<!-- Preferences&#45;&gt;Current Theme -->
<g id="edge47" class="edge"><title>Preferences&#45;&gt;Current Theme</title>
<path fill="none" stroke="black" d="M108.718,-146.367C135.338,-136.8 170.561,-124.142 200.321,-113.447"/>
<polygon fill="black" stroke="black" points="201.547,-116.726 209.774,-110.05 199.179,-110.138 201.547,-116.726"/>
</g>
<!-- Invalid Colour Warning -->
<g id="node44" class="node"><title>Invalid Colour Warning</title>
<polygon fill="lightgrey" stroke="black" points="347,-202 173,-202 173,-166 347,-166 347,-202"/>
<text text-anchor="middle" x="260" y="-179.9" font-family="Times Roman,serif" font-size="14.00">Invalid Colour Warning</text>
</g>
<!-- Preferences&#45;&gt;Invalid Colour Warning -->
<g id="edge50" class="edge"><title>Preferences&#45;&gt;Invalid Colour Warning</title>
<path fill="none" stroke="black" d="M130.072,-168.436C140.389,-169.672 151.307,-170.979 162.255,-172.291"/>
<polygon fill="black" stroke="black" points="161.956,-175.78 172.301,-173.494 162.789,-168.83 161.956,-175.78"/>
</g>
<!-- Current Contest&#45;&gt;Contest -->
<g id="edge36" class="edge"><title>Current Contest&#45;&gt;Contest</title>
<path fill="none" stroke="black" d="M324.599,-288.319C349.386,-293.43 377.361,-299.198 400.943,-304.06"/>
<polygon fill="black" stroke="black" points="400.258,-307.493 410.759,-306.084 401.672,-300.637 400.258,-307.493"/>
</g>
<!-- Visible Fields&#45;&gt;Form -->
<g id="edge39" class="edge"><title>Visible Fields&#45;&gt;Form</title>
<path fill="none" stroke="black" d="M506.266,-457.461C523.294,-460.954 542.356,-464.269 560,-466 760.461,-485.666 825.074,-508.034 1012,-433 1034.85,-423.827 1056.61,-406.341 1072.11,-391.814"/>
<polygon fill="black" stroke="black" points="1074.87,-394.017 1079.62,-384.547 1070,-388.987 1074.87,-394.017"/>
</g>
<!-- Visible Columns&#45;&gt;Log -->
<g id="edge42" class="edge"><title>Visible Columns&#45;&gt;Log</title>
<path fill="none" stroke="black" d="M1277.57,-156.031C1308.84,-178.968 1362.64,-218.448 1395.02,-242.2"/>
<polygon fill="black" stroke="black" points="1393.02,-245.074 1403.15,-248.168 1397.16,-239.431 1393.02,-245.074"/>
</g>
<!-- Store Preferences&#45;&gt;Storage -->
<g id="edge45" class="edge"><title>Store Preferences&#45;&gt;Storage</title>
<path fill="none" stroke="black" d="M524.114,-14.5586C589.131,-11.6659 688.578,-8 775,-8 775,-8 775,-8 1422,-8 1515.97,-8 1606.19,-86.2826 1647.11,-127.41"/>
<polygon fill="black" stroke="black" points="1644.67,-129.924 1654.16,-134.63 1649.67,-125.032 1644.67,-129.924"/>
</g>
<!-- Theme -->
<g id="node42" class="node"><title>Theme</title>
<ellipse fill="green" stroke="green" cx="775" cy="-92" rx="43.9728" ry="18"/>
<text text-anchor="middle" x="775" y="-87.9" font-family="Times Roman,serif" font-size="14.00">Theme</text>
</g>
<!-- Current Theme&#45;&gt;Theme -->
<g id="edge48" class="edge"><title>Current Theme&#45;&gt;Theme</title>
<path fill="none" stroke="black" d="M321.1,-92C422.258,-92 622.98,-92 719.981,-92"/>
<polygon fill="black" stroke="black" points="720.161,-95.5001 730.161,-92 720.161,-88.5001 720.161,-95.5001"/>
</g>
<!-- Form Layout -->
<g id="node46" class="node"><title>Form Layout</title>
<polygon fill="lightgrey" stroke="black" points="993,-240 889,-240 889,-204 993,-204 993,-240"/>
<text text-anchor="middle" x="941" y="-217.9" font-family="Times Roman,serif" font-size="14.00">Form Layout</text>
</g>
<!-- Theme&#45;&gt;Form Layout -->
<g id="edge53" class="edge"><title>Theme&#45;&gt;Form Layout</title>
<path fill="none" stroke="black" d="M795.688,-108.202C824.372,-130.665 876.454,-171.452 909.852,-197.607"/>
<polygon fill="black" stroke="black" points="907.883,-200.511 917.914,-203.921 912.199,-195 907.883,-200.511"/>
</g>
<!-- Log Layout -->
<g id="node48" class="node"><title>Log Layout</title>
<polygon fill="lightgrey" stroke="black" points="1142,-110 1048,-110 1048,-74 1142,-74 1142,-110"/>
<text text-anchor="middle" x="1095" y="-87.9" font-family="Times Roman,serif" font-size="14.00">Log Layout</text>
</g>
<!-- Theme&#45;&gt;Log Layout -->
<g id="edge56" class="edge"><title>Theme&#45;&gt;Log Layout</title>
<path fill="none" stroke="black" d="M819.832,-92C876.86,-92 975.413,-92 1037.8,-92"/>
<polygon fill="black" stroke="black" points="1037.87,-95.5001 1047.87,-92 1037.87,-88.5001 1037.87,-95.5001"/>
</g>
<!-- Theme Code -->
<g id="node50" class="node"><title>Theme Code</title>
<polygon fill="lightgrey" stroke="black" points="1473,-114 1371,-114 1371,-78 1473,-78 1473,-114"/>
<text text-anchor="middle" x="1422" y="-91.9" font-family="Times Roman,serif" font-size="14.00">Theme Code</text>
</g>
<!-- Theme&#45;&gt;Theme Code -->
<g id="edge59" class="edge"><title>Theme&#45;&gt;Theme Code</title>
<path fill="none" stroke="black" d="M817.462,-86.4904C871.07,-79.837 966.181,-69.0362 1048,-65 1172.41,-58.863 1204.52,-60.6141 1328,-77 1338.61,-78.4086 1349.83,-80.3086 1360.67,-82.3642"/>
<polygon fill="black" stroke="black" points="1360.01,-85.8011 1370.5,-84.2861 1361.35,-78.9313 1360.01,-85.8011"/>
</g>
<!-- Invalid Colour Warning&#45;&gt;Validation -->
<g id="edge51" class="edge"><title>Invalid Colour Warning&#45;&gt;Validation</title>
<path fill="none" stroke="black" d="M347.654,-198.637C451.576,-215.991 622.121,-244.471 713.167,-259.674"/>
<polygon fill="black" stroke="black" points="712.623,-263.132 723.063,-261.327 713.776,-256.228 712.623,-263.132"/>
</g>
<!-- Form Layout&#45;&gt;Form -->
<g id="edge54" class="edge"><title>Form Layout&#45;&gt;Form</title>
<path fill="none" stroke="black" d="M963.425,-240.083C978.093,-252.479 997.207,-269.745 1012,-287 1030.77,-308.898 1026.94,-321.294 1048,-341 1051.59,-344.359 1055.67,-347.472 1059.9,-350.299"/>
<polygon fill="black" stroke="black" points="1058.3,-353.428 1068.66,-355.687 1061.97,-347.466 1058.3,-353.428"/>
</g>
<!-- Log Layout&#45;&gt;Log -->
<g id="edge57" class="edge"><title>Log Layout&#45;&gt;Log</title>
<path fill="none" stroke="black" d="M1142.09,-84.1158C1192.02,-78.2802 1271.35,-76.4474 1328,-111 1374.07,-139.098 1401.04,-199.197 1413.53,-234.515"/>
<polygon fill="black" stroke="black" points="1410.28,-235.845 1416.8,-244.195 1416.91,-233.6 1410.28,-235.845"/>
</g>
<!-- Theme Code&#45;&gt;Storage -->
<g id="edge60" class="edge"><title>Theme Code&#45;&gt;Storage</title>
<path fill="none" stroke="black" d="M1473.69,-107.671C1516,-117.227 1575.59,-130.682 1618,-140.257"/>
<polygon fill="black" stroke="black" points="1617.32,-143.693 1627.85,-142.481 1618.86,-136.865 1617.32,-143.693"/>
</g>
<!-- Show Invalid Field&#45;&gt;Form -->
<g id="edge63" class="edge"><title>Show Invalid Field&#45;&gt;Form</title>
<path fill="none" stroke="black" d="M992.708,-332.131C1013.39,-339.385 1036.82,-347.599 1056.03,-354.335"/>
<polygon fill="black" stroke="black" points="1055.06,-357.703 1065.65,-357.709 1057.37,-351.098 1055.06,-357.703"/>
</g>
<!-- Show Invalid Entry&#45;&gt;Log -->
<g id="edge66" class="edge"><title>Show Invalid Entry&#45;&gt;Log</title>
<path fill="none" stroke="black" d="M1327.62,-250.272C1346.91,-252.67 1366.9,-255.154 1383.49,-257.215"/>
<polygon fill="black" stroke="black" points="1383.51,-260.744 1393.86,-258.504 1384.37,-253.797 1383.51,-260.744"/>
</g>
</g>
</svg>
