<?xml version="1.0" encoding="UTF-8" standalone="no"?><!DOCTYPE svg PUBLIC "-//W3C//DTD SVG 1.1//EN" "http://www.w3.org/Graphics/SVG/1.1/DTD/svg11.dtd"><!-- Generated by graphviz version 2.40.1 (20161225.0304)
 --><!-- Title: C Pages: 1 --><svg xmlns="http://www.w3.org/2000/svg" xmlns:xlink="http://www.w3.org/1999/xlink" width="779pt" height="668pt" viewBox="0.00 0.00 779.13 668.00">
<g id="graph0" class="graph" transform="scale(1 1) rotate(0) translate(4 664)">
<title>C</title>
<polygon fill="#ffffff" stroke="transparent" points="-4,4 -4,-664 775.127,-664 775.127,4 -4,4"/>
<!-- Contest -->
<g id="node1" class="node">
<title>Contest</title>
<ellipse fill="#d3d3d3" stroke="#000000" cx="376.1652" cy="-517.2" rx="40.5867" ry="18"/>
<text text-anchor="middle" x="376.1652" y="-513" font-family="Times,serif" font-size="14.00" fill="#000000">Contest</text>
</g>
<!-- Special Fields -->
<g id="node2" class="node">
<title>Special Fields</title>
<text text-anchor="middle" x="485.1652" y="-450.6" font-family="Times,serif" font-size="14.00" fill="#000000">Special Fields</text>
</g>
<!-- Contest&#45;&gt;Special Fields -->
<g id="edge1" class="edge">
<title>Contest-&gt;Special Fields</title>
<path fill="none" stroke="#000000" d="M401.172,-502.8842C419.3089,-492.5012 443.6818,-478.5483 461.5005,-468.3475"/>
<polygon fill="#000000" stroke="#000000" points="463.7046,-471.1187 470.6442,-463.1129 460.2268,-465.0438 463.7046,-471.1187"/>
</g>
<!-- Export Format -->
<g id="node4" class="node">
<title>Export Format</title>
<text text-anchor="middle" x="612.1652" y="-138.6" font-family="Times,serif" font-size="14.00" fill="#000000">Export Format</text>
</g>
<!-- Contest&#45;&gt;Export Format -->
<g id="edge3" class="edge">
<title>Contest-&gt;Export Format</title>
<path fill="none" stroke="#000000" d="M412.544,-508.9574C453.5732,-498.9516 516.7306,-481.176 533.1652,-463.2 614.3785,-374.3696 615.5004,-215.5599 613.2904,-161.4505"/>
<polygon fill="#000000" stroke="#000000" points="616.7779,-161.1115 612.7804,-151.2998 609.7867,-161.4629 616.7779,-161.1115"/>
</g>
<!-- Required Fields -->
<g id="node6" class="node">
<title>Required Fields</title>
<text text-anchor="middle" x="383.1652" y="-450.6" font-family="Times,serif" font-size="14.00" fill="#000000">Required Fields</text>
</g>
<!-- Contest&#45;&gt;Required Fields -->
<g id="edge5" class="edge">
<title>Contest-&gt;Required Fields</title>
<path fill="none" stroke="#000000" d="M378.1899,-499.1513C379.1004,-491.0346 380.174,-481.4644 381.0904,-473.2955"/>
<polygon fill="#000000" stroke="#000000" points="384.5758,-473.6206 382.2125,-463.2927 377.6194,-472.8401 384.5758,-473.6206"/>
</g>
<!-- Plug&#45;In -->
<g id="node8" class="node">
<title>Plug-In</title>
<text text-anchor="middle" x="197.1652" y="-263.4" font-family="Times,serif" font-size="14.00" fill="#000000">Plug-In</text>
</g>
<!-- Contest&#45;&gt;Plug&#45;In -->
<g id="edge7" class="edge">
<title>Contest-&gt;Plug-In</title>
<path fill="none" stroke="#000000" d="M338.5946,-510.3535C309.6795,-503.2359 270.644,-489.3278 246.1652,-463.2 199.0958,-412.9599 195.4272,-324.4813 196.2557,-286.1603"/>
<polygon fill="#000000" stroke="#000000" points="199.7601,-286.0927 196.6141,-275.9758 192.7645,-285.8465 199.7601,-286.0927"/>
</g>
<!-- Rule Check -->
<g id="node10" class="node">
<title>Rule Check</title>
<text text-anchor="middle" x="288.1652" y="-450.6" font-family="Times,serif" font-size="14.00" fill="#000000">Rule Check</text>
</g>
<!-- Contest&#45;&gt;Rule Check -->
<g id="edge9" class="edge">
<title>Contest-&gt;Rule Check</title>
<path fill="none" stroke="#000000" d="M354.4124,-501.7753C340.3839,-491.8278 322.2609,-478.977 308.5173,-469.2315"/>
<polygon fill="#000000" stroke="#000000" points="310.3871,-466.2667 300.2052,-463.3375 306.338,-471.9769 310.3871,-466.2667"/>
</g>
<!-- Defaults -->
<g id="node3" class="node">
<title>Defaults</title>
<ellipse fill="#d3d3d3" stroke="#000000" cx="484.1652" cy="-392.4" rx="43.9964" ry="18"/>
<text text-anchor="middle" x="484.1652" y="-388.2" font-family="Times,serif" font-size="14.00" fill="#000000">Defaults</text>
</g>
<!-- Special Fields&#45;&gt;Defaults -->
<g id="edge2" class="edge">
<title>Special Fields-&gt;Defaults</title>
<path fill="none" stroke="#000000" d="M485.0303,-446.3845C484.9242,-439.7618 484.7698,-430.1276 484.6207,-420.8251"/>
<polygon fill="#000000" stroke="#000000" points="488.1174,-420.5839 484.4575,-410.6413 481.1183,-420.6962 488.1174,-420.5839"/>
</g>
<!-- Field Behaviour -->
<g id="node12" class="node">
<title>Field Behaviour</title>
<text text-anchor="middle" x="484.1652" y="-325.8" font-family="Times,serif" font-size="14.00" fill="#000000">Field Behaviour</text>
</g>
<!-- Defaults&#45;&gt;Field Behaviour -->
<g id="edge11" class="edge">
<title>Defaults-&gt;Field Behaviour</title>
<path fill="none" stroke="#000000" d="M484.1652,-374.3513C484.1652,-366.2346 484.1652,-356.6644 484.1652,-348.4955"/>
<polygon fill="#000000" stroke="#000000" points="487.6653,-348.4926 484.1652,-338.4927 480.6653,-348.4927 487.6653,-348.4926"/>
</g>
<!-- Export -->
<g id="node5" class="node">
<title>Export</title>
<ellipse fill="#d3d3d3" stroke="#000000" cx="552.1652" cy="-18" rx="37.1405" ry="18"/>
<text text-anchor="middle" x="552.1652" y="-13.8" font-family="Times,serif" font-size="14.00" fill="#000000">Export</text>
</g>
<!-- Export Format&#45;&gt;Export -->
<g id="edge4" class="edge">
<title>Export Format-&gt;Export</title>
<path fill="none" stroke="#000000" d="M608.0412,-134.222C599.3256,-116.0936 578.7194,-73.2328 565.1154,-44.9365"/>
<polygon fill="#000000" stroke="#000000" points="568.1139,-43.0956 560.6265,-35.5996 561.8052,-46.1287 568.1139,-43.0956"/>
</g>
<!-- Form -->
<g id="node7" class="node">
<title>Form</title>
<ellipse fill="#d3d3d3" stroke="#000000" cx="484.1652" cy="-267.6" rx="31.9205" ry="18"/>
<text text-anchor="middle" x="484.1652" y="-263.4" font-family="Times,serif" font-size="14.00" fill="#000000">Form</text>
</g>
<!-- Required Fields&#45;&gt;Form -->
<g id="edge6" class="edge">
<title>Required Fields-&gt;Form</title>
<path fill="none" stroke="#000000" d="M384.7614,-446.4323C389.2113,-424.5445 403.2331,-364.338 430.1652,-321.6 437.639,-309.7399 448.1509,-298.465 457.9164,-289.3151"/>
<polygon fill="#000000" stroke="#000000" points="460.4333,-291.7583 465.5157,-282.4621 455.7454,-286.5599 460.4333,-291.7583"/>
</g>
<!-- Insert Row -->
<g id="node13" class="node">
<title>Insert Row</title>
<text text-anchor="middle" x="484.1652" y="-201" font-family="Times,serif" font-size="14.00" fill="#000000">Insert Row</text>
</g>
<!-- Form&#45;&gt;Insert Row -->
<g id="edge13" class="edge">
<title>Form-&gt;Insert Row</title>
<path fill="none" stroke="#000000" d="M484.1652,-249.5513C484.1652,-241.4346 484.1652,-231.8644 484.1652,-223.6955"/>
<polygon fill="#000000" stroke="#000000" points="487.6653,-223.6926 484.1652,-213.6927 480.6653,-223.6927 487.6653,-223.6926"/>
</g>
<!-- Storage -->
<g id="node9" class="node">
<title>Storage</title>
<ellipse fill="#d3d3d3" stroke="#000000" cx="246.1652" cy="-18" rx="40.5673" ry="18"/>
<text text-anchor="middle" x="246.1652" y="-13.8" font-family="Times,serif" font-size="14.00" fill="#000000">Storage</text>
</g>
<!-- Plug&#45;In&#45;&gt;Storage -->
<g id="edge8" class="edge">
<title>Plug-In-&gt;Storage</title>
<path fill="none" stroke="#000000" d="M198.7955,-259.2954C205.3009,-226.1576 229.5833,-102.4659 240.6304,-46.1935"/>
<polygon fill="#000000" stroke="#000000" points="244.1011,-46.6827 242.5931,-36.1958 237.2322,-45.3342 244.1011,-46.6827"/>
</g>
<!-- Validation -->
<g id="node11" class="node">
<title>Validation</title>
<ellipse fill="#d3d3d3" stroke="#000000" cx="289.1652" cy="-392.4" rx="51.6035" ry="18"/>
<text text-anchor="middle" x="289.1652" y="-388.2" font-family="Times,serif" font-size="14.00" fill="#000000">Validation</text>
</g>
<!-- Rule Check&#45;&gt;Validation -->
<g id="edge10" class="edge">
<title>Rule Check-&gt;Validation</title>
<path fill="none" stroke="#000000" d="M288.3001,-446.3845C288.4062,-439.7618 288.5606,-430.1276 288.7097,-420.8251"/>
<polygon fill="#000000" stroke="#000000" points="292.2121,-420.6962 288.8729,-410.6413 285.213,-420.5839 292.2121,-420.6962"/>
</g>
<!-- Show Invalid Field -->
<g id="node31" class="node">
<title>Show Invalid Field</title>
<text text-anchor="middle" x="329.1652" y="-325.8" font-family="Times,serif" font-size="14.00" fill="#000000">Show Invalid Field</text>
</g>
<!-- Validation&#45;&gt;Show Invalid Field -->
<g id="edge41" class="edge">
<title>Validation-&gt;Show Invalid Field</title>
<path fill="none" stroke="#000000" d="M300.5206,-374.6856C306.0841,-366.0065 312.7528,-355.6034 318.2554,-347.0193"/>
<polygon fill="#000000" stroke="#000000" points="321.211,-348.8941 323.6611,-338.5864 315.3178,-345.1164 321.211,-348.8941"/>
</g>
<!-- Show Invalid Entry -->
<g id="node32" class="node">
<title>Show Invalid Entry</title>
<text text-anchor="middle" x="279.1652" y="-201" font-family="Times,serif" font-size="14.00" fill="#000000">Show Invalid Entry</text>
</g>
<!-- Validation&#45;&gt;Show Invalid Entry -->
<g id="edge43" class="edge">
<title>Validation-&gt;Show Invalid Entry</title>
<path fill="none" stroke="#000000" d="M279.3819,-374.4994C274.3445,-364.258 268.7327,-350.98 266.1652,-338.4 257.9086,-297.9449 267.3787,-249.4716 273.9439,-223.6051"/>
<polygon fill="#000000" stroke="#000000" points="277.3888,-224.2717 276.6007,-213.7062 270.6281,-222.4571 277.3888,-224.2717"/>
</g>
<!-- Field Behaviour&#45;&gt;Form -->
<g id="edge12" class="edge">
<title>Field Behaviour-&gt;Form</title>
<path fill="none" stroke="#000000" d="M484.1652,-321.5845C484.1652,-314.9618 484.1652,-305.3276 484.1652,-296.0251"/>
<polygon fill="#000000" stroke="#000000" points="487.6653,-295.8413 484.1652,-285.8413 480.6653,-295.8414 487.6653,-295.8413"/>
</g>
<!-- Log -->
<g id="node14" class="node">
<title>Log</title>
<ellipse fill="#d3d3d3" stroke="#000000" cx="418.1652" cy="-142.8" rx="27" ry="18"/>
<text text-anchor="middle" x="418.1652" y="-138.6" font-family="Times,serif" font-size="14.00" fill="#000000">Log</text>
</g>
<!-- Insert Row&#45;&gt;Log -->
<g id="edge14" class="edge">
<title>Insert Row-&gt;Log</title>
<path fill="none" stroke="#000000" d="M475.2641,-196.7845C466.5474,-188.5432 452.8981,-175.6384 441.1303,-164.5125"/>
<polygon fill="#000000" stroke="#000000" points="443.4107,-161.8518 433.7397,-157.525 438.6016,-166.9384 443.4107,-161.8518"/>
</g>
<!-- Extract -->
<g id="node17" class="node">
<title>Extract</title>
<text text-anchor="middle" x="468.1652" y="-76.2" font-family="Times,serif" font-size="14.00" fill="#000000">Extract</text>
</g>
<!-- Log&#45;&gt;Extract -->
<g id="edge17" class="edge">
<title>Log-&gt;Extract</title>
<path fill="none" stroke="#000000" d="M431.0414,-126.7304C438.409,-117.5358 447.6301,-106.0279 455.0389,-96.7816"/>
<polygon fill="#000000" stroke="#000000" points="457.9456,-98.7513 461.4674,-88.7589 452.483,-94.3741 457.9456,-98.7513"/>
</g>
<!-- Insert -->
<g id="node18" class="node">
<title>Insert</title>
<text text-anchor="middle" x="368.1652" y="-76.2" font-family="Times,serif" font-size="14.00" fill="#000000">Insert</text>
</g>
<!-- Log&#45;&gt;Insert -->
<g id="edge19" class="edge">
<title>Log-&gt;Insert</title>
<path fill="none" stroke="#000000" d="M405.289,-126.7304C397.9214,-117.5358 388.7003,-106.0279 381.2915,-96.7816"/>
<polygon fill="#000000" stroke="#000000" points="383.8474,-94.3741 374.863,-88.7589 378.3848,-98.7513 383.8474,-94.3741"/>
</g>
<!-- Edit -->
<g id="node19" class="node">
<title>Edit</title>
<text text-anchor="middle" x="531.1652" y="-76.2" font-family="Times,serif" font-size="14.00" fill="#000000">Edit</text>
</g>
<!-- Log&#45;&gt;Edit -->
<g id="edge21" class="edge">
<title>Log-&gt;Edit</title>
<path fill="none" stroke="#000000" d="M439.1548,-131.2093C459.4494,-120.0024 490.0235,-103.119 510.282,-91.9319"/>
<polygon fill="#000000" stroke="#000000" points="512.2462,-94.8456 519.3082,-86.9476 508.8623,-88.7178 512.2462,-94.8456"/>
</g>
<!-- Import -->
<g id="node15" class="node">
<title>Import</title>
<ellipse fill="#d3d3d3" stroke="#000000" cx="393.1652" cy="-267.6" rx="37.1386" ry="18"/>
<text text-anchor="middle" x="393.1652" y="-263.4" font-family="Times,serif" font-size="14.00" fill="#000000">Import</text>
</g>
<!-- Add records to -->
<g id="node16" class="node">
<title>Add records to</title>
<text text-anchor="middle" x="393.1652" y="-201" font-family="Times,serif" font-size="14.00" fill="#000000">Add records to</text>
</g>
<!-- Import&#45;&gt;Add records to -->
<g id="edge15" class="edge">
<title>Import-&gt;Add records to</title>
<path fill="none" stroke="#000000" d="M393.1652,-249.5513C393.1652,-241.4346 393.1652,-231.8644 393.1652,-223.6955"/>
<polygon fill="#000000" stroke="#000000" points="396.6653,-223.6926 393.1652,-213.6927 389.6653,-223.6927 396.6653,-223.6926"/>
</g>
<!-- Add records to&#45;&gt;Log -->
<g id="edge16" class="edge">
<title>Add records to-&gt;Log</title>
<path fill="none" stroke="#000000" d="M396.5368,-196.7845C399.3357,-189.7985 403.4771,-179.4615 407.3889,-169.6976"/>
<polygon fill="#000000" stroke="#000000" points="410.6958,-170.8544 411.166,-160.27 404.1979,-168.2511 410.6958,-170.8544"/>
</g>
<!-- Extract&#45;&gt;Export -->
<g id="edge18" class="edge">
<title>Extract-&gt;Export</title>
<path fill="none" stroke="#000000" d="M479.4938,-71.9845C490.7537,-63.62 508.4804,-50.4516 523.6068,-39.2148"/>
<polygon fill="#000000" stroke="#000000" points="525.745,-41.9865 531.6853,-33.2136 521.5707,-36.3673 525.745,-41.9865"/>
</g>
<!-- Insert&#45;&gt;Storage -->
<g id="edge20" class="edge">
<title>Insert-&gt;Storage</title>
<path fill="none" stroke="#000000" d="M352.2158,-72.2423C334.4256,-63.143 305.0848,-48.1359 281.7696,-36.2107"/>
<polygon fill="#000000" stroke="#000000" points="283.3412,-33.0834 272.8444,-31.6457 280.1536,-39.3155 283.3412,-33.0834"/>
</g>
<!-- Edit&#45;&gt;Form -->
<g id="edge22" class="edge">
<title>Edit-&gt;Form</title>
<path fill="none" stroke="#000000" d="M532.3541,-88.834C535.0512,-110.3856 540.2211,-168.926 524.1652,-213.6 520.2778,-224.4163 513.4587,-234.9048 506.5399,-243.7159"/>
<polygon fill="#000000" stroke="#000000" points="503.6791,-241.6819 499.9684,-251.6057 509.0578,-246.1618 503.6791,-241.6819"/>
</g>
<!-- Preferences -->
<g id="node20" class="node">
<title>Preferences</title>
<ellipse fill="#d3d3d3" stroke="#000000" cx="318.1652" cy="-642" rx="56.1338" ry="18"/>
<text text-anchor="middle" x="318.1652" y="-637.8" font-family="Times,serif" font-size="14.00" fill="#000000">Preferences</text>
</g>
<!-- Current Contest -->
<g id="node21" class="node">
<title>Current Contest</title>
<text text-anchor="middle" x="372.1652" y="-575.4" font-family="Times,serif" font-size="14.00" fill="#000000">Current Contest</text>
</g>
<!-- Preferences&#45;&gt;Current Contest -->
<g id="edge23" class="edge">
<title>Preferences-&gt;Current Contest</title>
<path fill="none" stroke="#000000" d="M333.2072,-624.6181C341.0588,-615.5452 350.601,-604.5186 358.2765,-595.6492"/>
<polygon fill="#000000" stroke="#000000" points="361.0501,-597.7927 364.9473,-587.9407 355.7569,-593.2121 361.0501,-597.7927"/>
</g>
<!-- Visible Fields -->
<g id="node22" class="node">
<title>Visible Fields</title>
<text text-anchor="middle" x="550.1652" y="-513" font-family="Times,serif" font-size="14.00" fill="#000000">Visible Fields</text>
</g>
<!-- Preferences&#45;&gt;Visible Fields -->
<g id="edge25" class="edge">
<title>Preferences-&gt;Visible Fields</title>
<path fill="none" stroke="#000000" d="M349.5911,-626.8555C371.2661,-616.2717 400.6568,-601.646 426.1652,-588 462.0225,-568.8178 502.8419,-545.1476 527.5405,-530.6177"/>
<polygon fill="#000000" stroke="#000000" points="529.3387,-533.6207 536.1732,-525.525 525.7819,-527.5916 529.3387,-533.6207"/>
</g>
<!-- Visible Columns -->
<g id="node23" class="node">
<title>Visible Columns</title>
<text text-anchor="middle" x="121.1652" y="-201" font-family="Times,serif" font-size="14.00" fill="#000000">Visible Columns</text>
</g>
<!-- Preferences&#45;&gt;Visible Columns -->
<g id="edge27" class="edge">
<title>Preferences-&gt;Visible Columns</title>
<path fill="none" stroke="#000000" d="M266.6455,-634.6269C233.467,-627.5588 191.2579,-613.9398 162.1652,-588 136.1108,-564.7693 128.1652,-552.107 128.1652,-517.2 128.1652,-517.2 128.1652,-517.2 128.1652,-330 128.1652,-292.1577 124.9171,-247.962 122.846,-223.6277"/>
<polygon fill="#000000" stroke="#000000" points="126.3325,-223.319 121.9682,-213.6648 119.3595,-223.9335 126.3325,-223.319"/>
</g>
<!-- Store Preferences -->
<g id="node24" class="node">
<title>Store Preferences</title>
<text text-anchor="middle" x="49.1652" y="-513" font-family="Times,serif" font-size="14.00" fill="#000000">Store Preferences</text>
</g>
<!-- Preferences&#45;&gt;Store Preferences -->
<g id="edge29" class="edge">
<title>Preferences-&gt;Store Preferences</title>
<path fill="none" stroke="#000000" d="M264.6573,-636.2464C221.507,-629.7043 160.5761,-616.0367 114.1652,-588 91.4807,-574.2963 71.9241,-550.3442 60.3459,-534.1352"/>
<polygon fill="#000000" stroke="#000000" points="63.0399,-531.876 54.4875,-525.6224 57.2735,-535.8444 63.0399,-531.876"/>
</g>
<!-- Current Theme -->
<g id="node25" class="node">
<title>Current Theme</title>
<text text-anchor="middle" x="610.1652" y="-575.4" font-family="Times,serif" font-size="14.00" fill="#000000">Current Theme</text>
</g>
<!-- Preferences&#45;&gt;Current Theme -->
<g id="edge31" class="edge">
<title>Preferences-&gt;Current Theme</title>
<path fill="none" stroke="#000000" d="M365.0801,-631.9744C418.9577,-620.4608 506.9209,-601.6632 561.5171,-589.996"/>
<polygon fill="#000000" stroke="#000000" points="562.2596,-593.4165 571.3073,-587.9039 560.7967,-586.571 562.2596,-593.4165"/>
</g>
<!-- Invalid Colour Warning -->
<g id="node27" class="node">
<title>Invalid Colour Warning</title>
<text text-anchor="middle" x="238.1652" y="-575.4" font-family="Times,serif" font-size="14.00" fill="#000000">Invalid Colour Warning</text>
</g>
<!-- Preferences&#45;&gt;Invalid Colour Warning -->
<g id="edge33" class="edge">
<title>Preferences-&gt;Invalid Colour Warning</title>
<path fill="none" stroke="#000000" d="M296.7267,-625.2779C284.3618,-615.6334 268.9565,-603.6172 257.0501,-594.3303"/>
<polygon fill="#000000" stroke="#000000" points="259.1301,-591.5138 249.0924,-588.1232 254.8248,-597.0333 259.1301,-591.5138"/>
</g>
<!-- Current Contest&#45;&gt;Contest -->
<g id="edge24" class="edge">
<title>Current Contest-&gt;Contest</title>
<path fill="none" stroke="#000000" d="M372.7047,-571.1845C373.1292,-564.5618 373.7468,-554.9276 374.3431,-545.6251"/>
<polygon fill="#000000" stroke="#000000" points="377.8489,-545.6448 374.9959,-535.4413 370.8632,-545.1969 377.8489,-545.6448"/>
</g>
<!-- Visible Fields&#45;&gt;Form -->
<g id="edge26" class="edge">
<title>Visible Fields-&gt;Form</title>
<path fill="none" stroke="#000000" d="M554.6152,-508.7024C559.7862,-498.3051 568.0122,-480.007 571.1652,-463.2 580.7231,-412.2521 565.6981,-369.4703 538.1652,-321.6 531.1759,-309.4481 520.7483,-298.1224 510.9149,-289.0135"/>
<polygon fill="#000000" stroke="#000000" points="513.0398,-286.22 503.2331,-282.2101 508.3987,-291.4603 513.0398,-286.22"/>
</g>
<!-- Visible Columns&#45;&gt;Log -->
<g id="edge28" class="edge">
<title>Visible Columns-&gt;Log</title>
<path fill="none" stroke="#000000" d="M160.9118,-196.8492C219.0943,-184.625 326.5814,-162.0418 382.4086,-150.3125"/>
<polygon fill="#000000" stroke="#000000" points="383.1414,-153.735 392.2081,-148.2536 381.7021,-146.8846 383.1414,-153.735"/>
</g>
<!-- Store Preferences&#45;&gt;Storage -->
<g id="edge30" class="edge">
<title>Store Preferences-&gt;Storage</title>
<path fill="none" stroke="#000000" d="M48.8211,-508.7277C48.0331,-488.5723 46.1652,-436.1793 46.1652,-392.4 46.1652,-392.4 46.1652,-392.4 46.1652,-142.8 46.1652,-71.6114 138.4939,-39.5469 197.687,-26.3051"/>
<polygon fill="#000000" stroke="#000000" points="198.5523,-29.6994 207.6032,-24.192 197.0933,-22.8531 198.5523,-29.6994"/>
</g>
<!-- Theme -->
<g id="node26" class="node">
<title>Theme</title>
<ellipse fill="#d3d3d3" stroke="#000000" cx="693.1652" cy="-392.4" rx="37.7006" ry="18"/>
<text text-anchor="middle" x="693.1652" y="-388.2" font-family="Times,serif" font-size="14.00" fill="#000000">Theme</text>
</g>
<!-- Current Theme&#45;&gt;Theme -->
<g id="edge32" class="edge">
<title>Current Theme-&gt;Theme</title>
<path fill="none" stroke="#000000" d="M613.9472,-571.07C625.7158,-544.5268 662.04,-462.6005 681.142,-419.5175"/>
<polygon fill="#000000" stroke="#000000" points="684.4189,-420.7616 685.2726,-410.2012 678.0197,-417.9243 684.4189,-420.7616"/>
</g>
<!-- Form Layout -->
<g id="node28" class="node">
<title>Form Layout</title>
<text text-anchor="middle" x="660.1652" y="-325.8" font-family="Times,serif" font-size="14.00" fill="#000000">Form Layout</text>
</g>
<!-- Theme&#45;&gt;Form Layout -->
<g id="edge35" class="edge">
<title>Theme-&gt;Form Layout</title>
<path fill="none" stroke="#000000" d="M683.797,-374.6856C679.3047,-366.1911 673.9391,-356.0453 669.4569,-347.5697"/>
<polygon fill="#000000" stroke="#000000" points="672.4751,-345.7901 664.7061,-338.5864 666.2871,-349.0626 672.4751,-345.7901"/>
</g>
<!-- Log Layout -->
<g id="node29" class="node">
<title>Log Layout</title>
<text text-anchor="middle" x="681.1652" y="-263.4" font-family="Times,serif" font-size="14.00" fill="#000000">Log Layout</text>
</g>
<!-- Theme&#45;&gt;Log Layout -->
<g id="edge37" class="edge">
<title>Theme-&gt;Log Layout</title>
<path fill="none" stroke="#000000" d="M700.3777,-374.5816C705.2437,-360.2224 710.1167,-339.5408 706.1652,-321.6 703.3024,-308.6024 696.9898,-295.0112 691.4245,-284.7155"/>
<polygon fill="#000000" stroke="#000000" points="694.4422,-282.9417 686.4547,-275.981 688.3581,-286.4035 694.4422,-282.9417"/>
</g>
<!-- Theme Code -->
<g id="node30" class="node">
<title>Theme Code</title>
<text text-anchor="middle" x="735.1652" y="-138.6" font-family="Times,serif" font-size="14.00" fill="#000000">Theme Code</text>
</g>
<!-- Theme&#45;&gt;Theme Code -->
<g id="edge39" class="edge">
<title>Theme-&gt;Theme Code</title>
<path fill="none" stroke="#000000" d="M703.9804,-375.0975C709.8354,-364.83 716.5854,-351.33 720.1652,-338.4 737.6371,-275.2921 737.3258,-196.6474 736.0878,-161.3998"/>
<polygon fill="#000000" stroke="#000000" points="739.5757,-161.0384 735.6568,-151.1951 732.582,-161.3339 739.5757,-161.0384"/>
</g>
<!-- Invalid Colour Warning&#45;&gt;Validation -->
<g id="edge34" class="edge">
<title>Invalid Colour Warning-&gt;Validation</title>
<path fill="none" stroke="#000000" d="M236.9663,-571.1265C234.259,-549.4822 229.1584,-490.7422 246.1652,-446.4 250.1979,-435.8854 257.0638,-425.8141 264.1395,-417.2774"/>
<polygon fill="#000000" stroke="#000000" points="266.9196,-419.4163 270.9022,-409.5985 261.6664,-414.7899 266.9196,-419.4163"/>
</g>
<!-- Form Layout&#45;&gt;Form -->
<g id="edge36" class="edge">
<title>Form Layout-&gt;Form</title>
<path fill="none" stroke="#000000" d="M636.4291,-321.5845C606.7956,-311.078 555.7847,-292.9924 521.0449,-280.6755"/>
<polygon fill="#000000" stroke="#000000" points="521.8637,-277.2524 511.269,-277.2095 519.5245,-283.85 521.8637,-277.2524"/>
</g>
<!-- Log Layout&#45;&gt;Log -->
<g id="edge38" class="edge">
<title>Log Layout-&gt;Log</title>
<path fill="none" stroke="#000000" d="M663.5006,-259.2177C619.6248,-238.3975 505.2164,-184.1079 449.528,-157.6824"/>
<polygon fill="#000000" stroke="#000000" points="451.0126,-154.5129 440.4776,-153.3878 448.0116,-160.837 451.0126,-154.5129"/>
</g>
<!-- Theme Code&#45;&gt;Storage -->
<g id="edge40" class="edge">
<title>Theme Code-&gt;Storage</title>
<path fill="none" stroke="#000000" d="M717.123,-134.4594C684.7453,-119.8021 614.3479,-89.3376 552.1652,-72 463.4998,-47.2786 357.089,-31.5224 295.9774,-23.7629"/>
<polygon fill="#000000" stroke="#000000" points="296.1951,-20.2629 285.8383,-22.4963 295.3273,-27.2089 296.1951,-20.2629"/>
</g>
<!-- Show Invalid Field&#45;&gt;Form -->
<g id="edge42" class="edge">
<title>Show Invalid Field-&gt;Form</title>
<path fill="none" stroke="#000000" d="M350.0692,-321.5845C375.2718,-311.4384 418.0318,-294.224 448.4887,-281.9627"/>
<polygon fill="#000000" stroke="#000000" points="449.9378,-285.1523 457.9072,-278.171 447.3236,-278.6588 449.9378,-285.1523"/>
</g>
<!-- Show Invalid Entry&#45;&gt;Log -->
<g id="edge44" class="edge">
<title>Show Invalid Entry-&gt;Log</title>
<path fill="none" stroke="#000000" d="M297.9114,-196.7845C320.5819,-186.6072 359.0943,-169.3181 386.423,-157.0497"/>
<polygon fill="#000000" stroke="#000000" points="387.8893,-160.228 395.5788,-152.9395 385.0225,-153.842 387.8893,-160.228"/>
</g>
</g>
</svg>